<svg width="130" height="130" viewBox="0 0 130 130" fill="none" xmlns="http://www.w3.org/2000/svg">
<g clip-path="url(#clip0_160_386)">
<path d="M40.1675 52.2559C41.8415 52.2559 43.2778 52.5349 44.4765 53.0929C45.6751 53.6302 46.6465 54.4052 47.3905 55.4179C48.1551 56.4099 48.7131 57.5569 49.0645 58.8589C49.4365 60.1609 49.6225 61.5559 49.6225 63.0439V64.3459C49.6225 68.1072 48.6615 70.9489 46.7395 72.8709C44.8175 74.7722 41.9861 75.7229 38.2455 75.7229C37.4808 75.7229 36.7265 75.7022 35.9825 75.6609C35.2385 75.6196 34.5151 75.5576 33.8125 75.4749V71.2279C34.4945 71.2899 35.2281 71.3519 36.0135 71.4139C36.7988 71.4552 37.6048 71.4759 38.4315 71.4759C40.0848 71.4759 41.3868 71.2072 42.3375 70.6699C43.2881 70.1119 43.9598 69.2852 44.3525 68.1899C44.7451 67.0946 44.9415 65.7409 44.9415 64.1289V61.7729L46.0575 61.0289C46.0368 62.5789 45.7165 63.8809 45.0965 64.9349C44.4971 65.9682 43.6601 66.7432 42.5855 67.2599C41.5108 67.7766 40.2708 68.0349 38.8655 68.0349C37.2741 68.0349 35.8998 67.7249 34.7425 67.1049C33.5851 66.4642 32.6965 65.5756 32.0765 64.4389C31.4565 63.3022 31.1465 61.9589 31.1465 60.4089C31.1465 58.7762 31.5185 57.3502 32.2625 56.1309C33.0065 54.8909 34.0501 53.9402 35.3935 53.2789C36.7575 52.5969 38.3488 52.2559 40.1675 52.2559ZM40.3225 56.4719C39.4131 56.4719 38.6381 56.6372 37.9975 56.9679C37.3775 57.2986 36.8918 57.7532 36.5405 58.3319C36.2098 58.8899 36.0445 59.5512 36.0445 60.3159C36.0445 61.1012 36.2098 61.7832 36.5405 62.3619C36.8711 62.9199 37.3361 63.3642 37.9355 63.6949C38.5555 64.0049 39.3098 64.1599 40.1985 64.1599C41.0045 64.1599 41.7381 64.0256 42.3995 63.7569C43.0815 63.4676 43.6188 63.0439 44.0115 62.4859C44.4041 61.9072 44.6005 61.1839 44.6005 60.3159C44.6005 59.5719 44.4351 58.9106 44.1045 58.3319C43.7945 57.7532 43.3191 57.2986 42.6785 56.9679C42.0378 56.6372 41.2525 56.4719 40.3225 56.4719ZM61.6047 76.1879C59.786 76.1879 58.1947 75.9192 56.8307 75.3819C55.4874 74.8446 54.4334 74.0592 53.6687 73.0259C52.9247 71.9926 52.5527 70.7319 52.5527 69.2439C52.5527 68.2932 52.7077 67.4562 53.0177 66.7329C53.3277 65.9889 53.7617 65.3586 54.3197 64.8419C54.8984 64.3252 55.57 63.9222 56.3347 63.6329V63.2299C55.756 62.9819 55.229 62.6512 54.7537 62.2379C54.2784 61.8039 53.9064 61.2769 53.6377 60.6569C53.369 60.0369 53.2347 59.3136 53.2347 58.4869C53.2347 57.0816 53.5964 55.9242 54.3197 55.0149C55.0637 54.1056 56.066 53.4236 57.3267 52.9689C58.608 52.4936 60.034 52.2559 61.6047 52.2559C63.2167 52.2559 64.653 52.4936 65.9137 52.9689C67.1744 53.4236 68.1664 54.1056 68.8897 55.0149C69.613 55.9242 69.9747 57.0816 69.9747 58.4869C69.9747 59.3136 69.8404 60.0369 69.5717 60.6569C69.3237 61.2769 68.962 61.8039 68.4867 62.2379C68.0114 62.6512 67.474 62.9819 66.8747 63.2299V63.6329C67.6394 63.9222 68.311 64.3252 68.8897 64.8419C69.4684 65.3586 69.9127 65.9889 70.2227 66.7329C70.5327 67.4562 70.6877 68.2932 70.6877 69.2439C70.6877 70.7319 70.3054 71.9926 69.5407 73.0259C68.7967 74.0592 67.7427 74.8446 66.3787 75.3819C65.0354 75.9192 63.444 76.1879 61.6047 76.1879ZM61.6047 72.0029C62.452 72.0029 63.1857 71.8789 63.8057 71.6309C64.4257 71.3829 64.9114 71.0109 65.2627 70.5149C65.614 69.9982 65.7897 69.3782 65.7897 68.6549C65.7897 67.9316 65.614 67.3322 65.2627 66.8569C64.932 66.3609 64.4464 65.9889 63.8057 65.7409C63.1857 65.4722 62.452 65.3379 61.6047 65.3379C60.778 65.3379 60.0444 65.4722 59.4037 65.7409C58.7837 65.9889 58.3084 66.3609 57.9777 66.8569C57.647 67.3322 57.4817 67.9316 57.4817 68.6549C57.4817 69.3782 57.647 69.9982 57.9777 70.5149C58.3084 71.0109 58.7837 71.3829 59.4037 71.6309C60.0444 71.8789 60.778 72.0029 61.6047 72.0029ZM61.6047 61.5869C62.6794 61.5869 63.5267 61.3699 64.1467 60.9359C64.7667 60.4812 65.0767 59.8302 65.0767 58.9829C65.0767 58.1356 64.7667 57.4949 64.1467 57.0609C63.5267 56.6269 62.6794 56.4099 61.6047 56.4099C60.53 56.4099 59.6827 56.6372 59.0627 57.0919C58.4427 57.5259 58.1327 58.1562 58.1327 58.9829C58.1327 59.8302 58.4427 60.4812 59.0627 60.9359C59.7034 61.3699 60.5507 61.5869 61.6047 61.5869ZM79.6155 75.5369L87.8615 52.9069H92.0155L83.8005 75.5369H79.6155ZM78.0655 65.3379C76.8461 65.3379 75.8231 65.0692 74.9965 64.5319C74.1905 63.9739 73.5808 63.2402 73.1675 62.3309C72.7748 61.4009 72.5785 60.3779 72.5785 59.2619V58.4559C72.5785 57.2779 72.7851 56.2342 73.1985 55.3249C73.6118 54.4156 74.2318 53.7026 75.0585 53.1859C75.8851 52.6692 76.8875 52.4109 78.0655 52.4109C79.2641 52.4109 80.2665 52.6692 81.0725 53.1859C81.8991 53.7026 82.5191 54.4156 82.9325 55.3249C83.3458 56.2342 83.5525 57.2779 83.5525 58.4559V59.2619C83.5525 60.3779 83.3458 61.4009 82.9325 62.3309C82.5398 63.2402 81.9405 63.9739 81.1345 64.5319C80.3285 65.0692 79.3055 65.3379 78.0655 65.3379ZM78.0655 62.0209C78.7061 62.0209 79.1711 61.7936 79.4605 61.3389C79.7705 60.8636 79.9255 60.0472 79.9255 58.8899C79.9255 57.6706 79.7705 56.8336 79.4605 56.3789C79.1505 55.9242 78.6855 55.6969 78.0655 55.6969C77.4455 55.6969 76.9805 55.9242 76.6705 56.3789C76.3605 56.8336 76.2055 57.6602 76.2055 58.8589C76.2055 60.0162 76.3605 60.8326 76.6705 61.3079C76.9805 61.7832 77.4455 62.0209 78.0655 62.0209ZM93.4725 76.0639C92.2325 76.0639 91.2095 75.7952 90.4035 75.2579C89.5975 74.7206 88.9878 73.9972 88.5745 73.0879C88.1818 72.1579 87.9855 71.1349 87.9855 70.0189V69.2129C87.9855 68.0142 88.1921 66.9602 88.6055 66.0509C89.0188 65.1416 89.6285 64.4286 90.4345 63.9119C91.2611 63.3952 92.2738 63.1369 93.4725 63.1369C94.6711 63.1369 95.6735 63.3952 96.4795 63.9119C97.2855 64.4286 97.8951 65.1416 98.3085 66.0509C98.7218 66.9602 98.9285 68.0142 98.9285 69.2129V70.0189C98.9285 71.1349 98.7218 72.1579 98.3085 73.0879C97.9158 73.9972 97.3165 74.7206 96.5105 75.2579C95.7251 75.7952 94.7125 76.0639 93.4725 76.0639ZM93.4725 72.7779C94.1131 72.7779 94.5781 72.5506 94.8675 72.0959C95.1775 71.6206 95.3325 70.8042 95.3325 69.6469C95.3325 68.4069 95.1775 67.5699 94.8675 67.1359C94.5575 66.6812 94.0925 66.4539 93.4725 66.4539C92.8525 66.4539 92.3771 66.6812 92.0465 67.1359C91.7365 67.5699 91.5815 68.3966 91.5815 69.6159C91.5815 70.7732 91.7365 71.5896 92.0465 72.0649C92.3565 72.5402 92.8318 72.7779 93.4725 72.7779Z" fill="#00F57F"/>
<path d="M65 125.955C98.7346 125.955 126.082 98.6077 126.082 64.873C126.082 31.1384 98.7346 3.79102 65 3.79102C31.2653 3.79102 3.91797 31.1384 3.91797 64.873C3.91797 98.6077 31.2653 125.955 65 125.955Z" stroke="#006523" stroke-width="6"/>
<mask id="mask0_160_386" style="mask-type:luminance" maskUnits="userSpaceOnUse" x="0" y="0" width="130" height="130">
<path d="M65.0002 3.10707C65.0002 1.39129 66.3922 -0.00739269 68.106 0.0747301C81.2848 0.706169 93.986 5.34427 104.492 13.4062C115.822 22.0998 123.967 34.289 127.663 48.0832C131.359 61.8774 130.4 76.5057 124.935 89.6995C119.47 102.893 109.804 113.915 97.4368 121.055C85.0693 128.195 70.6912 131.055 56.5326 129.191C42.3739 127.327 29.226 120.844 19.128 110.745C9.02992 100.647 2.54608 87.4999 0.682051 73.3413C-1.04654 60.2114 1.28732 46.8928 7.32989 35.1639C8.11568 33.6386 10.0229 33.1325 11.5088 33.9904C12.9948 34.8483 13.4958 36.7451 12.7178 38.2743C7.35475 48.8153 5.29226 60.7567 6.84229 72.5303C8.52779 85.3328 14.3906 97.2215 23.5215 106.352C32.6524 115.483 44.541 121.346 57.3436 123.031C70.1461 124.717 83.1471 122.131 94.3301 115.674C105.513 109.218 114.253 99.2518 119.195 87.3217C124.136 75.3916 125.003 62.1643 121.661 49.6913C118.319 37.2183 110.954 26.1966 100.71 18.3357C91.2888 11.1065 79.916 6.92193 68.1057 6.296C66.3923 6.20519 65.0002 4.82285 65.0002 3.10707Z" fill="white"/>
</mask>
<g mask="url(#mask0_160_386)">
<path d="M65.0002 3.10707C65.0002 1.39129 66.3922 -0.00739269 68.106 0.0747301C81.2848 0.706169 93.986 5.34427 104.492 13.4062C115.822 22.0998 123.967 34.289 127.663 48.0832C131.359 61.8774 130.4 76.5057 124.935 89.6995C119.47 102.893 109.804 113.915 97.4368 121.055C85.0693 128.195 70.6912 131.055 56.5326 129.191C42.3739 127.327 29.226 120.844 19.128 110.745C9.02992 100.647 2.54608 87.4999 0.682051 73.3413C-1.04654 60.2114 1.28732 46.8928 7.32989 35.1639C8.11568 33.6386 10.0229 33.1325 11.5088 33.9904C12.9948 34.8483 13.4958 36.7451 12.7178 38.2743C7.35475 48.8153 5.29226 60.7567 6.84229 72.5303C8.52779 85.3328 14.3906 97.2215 23.5215 106.352C32.6524 115.483 44.541 121.346 57.3436 123.031C70.1461 124.717 83.1471 122.131 94.3301 115.674C105.513 109.218 114.253 99.2518 119.195 87.3217C124.136 75.3916 125.003 62.1643 121.661 49.6913C118.319 37.2183 110.954 26.1966 100.71 18.3357C91.2888 11.1065 79.916 6.92193 68.1057 6.296C66.3923 6.20519 65.0002 4.82285 65.0002 3.10707Z" stroke="#00F57F" stroke-width="12" stroke-linejoin="round"/>
</g>
</g>
<defs>
<clipPath id="clip0_160_386">
<rect width="130" height="130" fill="white"/>
</clipPath>
</defs>
</svg>
